<?xml version="1.0" standalone="no"?>
<!DOCTYPE svg PUBLIC "-//W3C//DTD SVG 20010904//EN"
 "http://www.w3.org/TR/2001/REC-SVG-20010904/DTD/svg10.dtd">
<svg version="1.0" xmlns="http://www.w3.org/2000/svg"
 width="1024.000000pt" height="1024.000000pt" viewBox="0 0 1024.000000 1024.000000"
 preserveAspectRatio="xMidYMid meet">

<g transform="translate(0.000000,1024.000000) scale(0.100000,-0.100000)"
fill="#000000" stroke="none">
<path d="M7 10233 c-4 -3 -7 -2307 -7 -5120 l0 -5113 5120 0 5120 0 0 5120 0
5120 -5113 0 c-2813 0 -5117 -3 -5120 -7z m5377 -1567 c106 -44 102 -189 -7
-231 -56 -21 -106 -8 -137 36 -61 85 -8 198 98 208 7 0 27 -5 46 -13z m578
-352 c477 -99 1036 -416 1408 -800 342 -353 575 -768 695 -1239 35 -138 65
-338 65 -436 l0 -59 -93 0 -93 0 -18 148 c-59 484 -277 969 -599 1334 -316
360 -695 620 -1132 778 -129 46 -359 110 -398 110 -15 0 -17 14 -17 100 l0
100 33 -6 c17 -4 85 -17 149 -30z m-1302 -114 l0 -99 -80 -25 c-459 -145 -857
-399 -1179 -751 -102 -112 -267 -333 -329 -442 -171 -299 -284 -635 -320 -955
l-16 -148 -92 0 c-50 0 -93 2 -95 4 -2 3 -1 58 3 123 29 460 247 989 578 1403
109 136 317 349 436 445 278 227 618 404 988 516 50 15 94 28 99 28 4 1 7 -44
7 -99z m471 -240 c2 -168 4 -155 -27 -158 -16 -1 -72 -9 -124 -18 -531 -86
-1008 -360 -1365 -785 -138 -165 -276 -395 -360 -599 -60 -149 -121 -406 -137
-585 l-3 -30 -97 -3 -98 -3 0 58 c0 119 56 382 120 568 43 126 156 351 237
475 94 143 253 338 354 435 264 253 591 454 925 568 152 52 239 73 412 97 177
25 162 27 163 -20z m552 25 c534 -79 1048 -346 1429 -744 238 -248 438 -577
537 -883 45 -140 98 -384 107 -502 l7 -76 -96 0 c-92 0 -97 1 -101 23 -2 12
-11 72 -21 132 -79 523 -364 1022 -770 1350 -348 280 -748 457 -1155 509 l-95
12 -3 97 -3 97 31 0 c16 0 76 -7 133 -15z m7 -404 c174 -30 486 -131 506 -163
3 -5 -13 -41 -35 -80 -23 -39 -40 -72 -39 -73 2 -2 23 -13 48 -25 180 -91 469
-348 630 -561 137 -182 234 -386 290 -613 42 -171 50 -236 50 -441 0 -268 -25
-409 -116 -654 -79 -210 -206 -405 -382 -583 -94 -96 -92 -84 -28 -152 42 -45
59 -74 53 -90 -8 -19 -177 -144 -280 -206 -113 -67 -249 -127 -408 -178 -122
-40 -333 -88 -413 -94 l-39 -3 2 90 c1 49 4 91 6 93 2 2 48 24 102 48 289 130
612 383 790 619 231 307 343 593 383 985 39 371 -101 839 -343 1150 -132 169
-233 264 -410 384 -299 202 -611 283 -897 232 -261 -47 -535 -195 -757 -409
-232 -224 -349 -411 -448 -715 -253 -777 66 -1608 804 -2090 46 -30 152 -90
235 -132 125 -64 151 -81 150 -99 0 -11 -1 -52 -2 -91 l-2 -70 -47 6 c-189 23
-527 127 -700 214 -124 63 -283 166 -352 227 -41 36 -43 40 -31 63 13 24 12
24 -6 10 -10 -8 -16 -10 -12 -6 4 5 2 16 -5 24 -10 13 -9 14 3 7 8 -5 20 -10
27 -11 18 -3 46 33 37 48 -4 7 -3 10 1 5 8 -7 55 30 55 44 0 4 -25 33 -56 66
-145 150 -264 318 -344 488 -164 343 -214 692 -155 1074 67 431 329 856 725
1172 60 48 185 129 238 154 23 11 42 23 42 27 0 4 -18 37 -40 73 -22 36 -40
70 -40 75 0 12 44 31 205 85 128 43 276 76 425 95 123 15 448 5 580 -19z
m-116 -465 c248 -83 458 -225 649 -440 l62 -70 -72 55 c-143 108 -454 278
-598 327 -141 48 -276 62 -386 42 -205 -38 -531 -195 -739 -355 -39 -31 -73
-55 -75 -53 -7 6 132 155 202 217 133 117 315 225 468 276 169 57 322 57 489
1z m-85 -222 c131 -32 402 -179 546 -297 210 -171 382 -386 479 -599 59 -128
57 -131 -28 -50 -88 84 -164 141 -287 217 -303 188 -621 333 -800 366 -56 10
-77 9 -145 -6 -118 -26 -249 -77 -449 -175 -255 -125 -457 -262 -613 -412 -34
-33 -65 -58 -68 -56 -9 10 81 201 138 293 164 262 461 527 722 643 155 68 241
91 345 92 54 0 123 -7 160 -16z m-838 -1138 c84 -19 174 -53 269 -101 91 -46
200 -114 200 -125 0 -11 -64 -61 -120 -93 -162 -93 -380 -69 -494 53 -24 26
-56 70 -70 98 -30 60 -61 165 -54 184 7 17 170 8 269 -16z m1643 -3 c-51 -233
-179 -360 -376 -371 -129 -8 -210 23 -373 140 -17 12 13 33 156 107 207 108
346 149 512 150 l87 1 -6 -27z m2063 -54 c127 -48 111 -228 -21 -253 -74 -14
-149 50 -148 125 1 54 29 98 77 120 47 22 55 22 92 8z m-5938 -14 c33 -16 71
-87 71 -129 0 -39 -64 -102 -112 -111 -101 -19 -182 100 -133 195 29 55 113
77 174 45z m1783 -334 c33 -63 84 -150 114 -194 30 -43 51 -84 48 -89 -4 -6
-2 -8 4 -4 5 3 25 -13 43 -36 19 -24 27 -37 18 -31 -16 13 -29 8 -29 -9 0 -5
4 -7 9 -4 5 3 14 -1 21 -9 7 -8 11 -15 9 -16 -31 -6 -40 -6 -45 2 -3 5 -10 6
-16 3 -7 -4 -8 -2 -4 5 4 6 13 8 19 5 7 -4 8 -3 4 2 -5 5 -13 10 -18 10 -5 1
-13 2 -19 3 -5 0 -16 13 -25 29 -35 61 -2 -24 55 -143 81 -168 164 -292 284
-425 l41 -45 -40 35 c-140 122 -259 253 -335 370 -119 185 -210 452 -225 661
l-5 74 17 -40 c9 -22 43 -92 75 -154z m2361 87 c-52 -384 -238 -729 -518 -961
-50 -42 -44 -30 28 51 62 70 165 234 223 357 29 63 54 118 54 120 0 3 -14 -9
-32 -27 -18 -18 -29 -26 -26 -18 3 8 14 32 23 53 9 22 11 36 6 32 -6 -3 -11
-14 -11 -23 0 -14 -2 -15 -9 -2 -6 8 -7 18 -4 24 3 5 1 6 -5 2 -7 -4 -12 -15
-13 -24 0 -10 -3 -12 -6 -5 -2 7 20 45 50 85 69 92 148 226 204 345 24 51 45
93 47 93 1 0 -3 -46 -11 -102z m-3820 -158 c73 -431 279 -887 555 -1230 345
-427 885 -762 1437 -890 50 -11 107 -25 128 -31 l37 -10 0 -94 c0 -75 -3 -95
-14 -95 -8 0 -70 11 -138 25 -425 84 -852 286 -1208 571 -117 94 -307 287
-413 419 -283 353 -500 839 -576 1291 -12 67 -21 129 -21 138 0 15 12 16 97
14 l98 -3 18 -105z m394 -24 c56 -304 216 -666 404 -912 27 -35 49 -67 49 -72
0 -11 -127 -132 -138 -132 -9 0 -147 189 -205 280 -92 146 -188 365 -251 574
-37 122 -89 374 -80 388 3 5 49 7 101 6 l96 -3 24 -129z m4923 -309 c0 -23
-95 -297 -133 -385 -168 -388 -459 -762 -812 -1045 -103 -82 -325 -230 -435
-290 -253 -137 -666 -275 -860 -289 l-45 -3 -3 46 c-2 25 1 68 5 95 l8 48 120
27 c295 66 606 196 854 356 328 212 589 471 806 803 102 156 221 413 272 587
l18 63 103 0 c79 0 102 -3 102 -13z m-3586 -66 c19 -20 23 -29 13 -27 -22 3
-58 37 -51 47 7 12 7 12 38 -20z m-699 -470 c3 -5 2 -12 -3 -15 -5 -3 -9 1 -9
9 0 17 3 19 12 6z m89 -39 c3 -5 -1 -9 -9 -9 -8 0 -12 4 -9 9 3 4 7 8 9 8 2 0
6 -4 9 -8z m73 -59 c-4 -3 -1 -13 6 -22 11 -14 10 -14 -5 -2 -16 12 -16 31 -1
31 4 0 3 -3 0 -7z m44 -60 c13 -16 12 -17 -3 -4 -17 13 -22 21 -14 21 2 0 10
-8 17 -17z m-37 -32 c17 -19 17 -19 0 -17 -9 2 -18 10 -20 19 -3 21 -1 21 20
-2z m1122 -1852 l-194 -404 -58 0 -58 0 -64 140 c-64 140 -262 581 -288 643
l-14 32 88 0 88 0 52 -112 c28 -62 83 -185 121 -273 38 -88 73 -161 78 -162 4
-2 17 18 27 45 11 26 69 149 129 274 l110 227 86 3 c47 2 87 0 89 -3 1 -3 -85
-188 -192 -410z m762 404 c-5 -13 -97 -181 -143 -263 -79 -141 -119 -219 -114
-224 2 -2 34 -2 70 1 l66 5 57 99 58 99 64 0 64 0 0 -67 c0 -38 3 -92 6 -120
l7 -53 -90 0 -89 0 -40 -67 -41 -68 -121 -3 -122 -3 -41 -74 -41 -75 -95 0
-95 0 25 43 c25 42 186 331 348 625 l84 152 93 0 c52 0 92 -3 90 -7z m322 -9
c122 -27 220 -106 278 -224 24 -50 27 -66 27 -165 0 -98 -3 -116 -27 -167 -37
-79 -73 -123 -142 -169 -99 -66 -163 -80 -359 -77 l-167 3 46 76 47 77 121 4
c131 5 181 19 243 72 96 81 101 249 10 345 -54 56 -97 71 -219 71 -73 0 -108
4 -108 11 0 6 19 45 42 85 l42 74 49 0 c26 0 79 -7 117 -16z m1060 -68 l0 -86
-220 0 -220 0 0 -80 0 -80 165 0 165 0 0 -85 0 -85 -170 0 -171 0 3 -77 3 -78
223 -3 222 -2 0 -80 0 -80 -300 0 -300 0 0 403 c0 222 2 406 4 408 3 2 138 6
300 8 l296 3 0 -86z m-2980 -6 l0 -80 -225 0 -225 0 0 -82 0 -83 156 3 c93 2
161 -1 167 -7 6 -6 7 -39 2 -85 l-7 -76 -159 0 -159 0 0 -80 0 -80 225 0 225
0 0 -49 c0 -27 -3 -63 -6 -80 l-6 -31 -304 0 -304 0 0 405 0 405 310 0 310 0
0 -80z m1041 -951 c9 -4 22 -15 29 -24 11 -14 10 -19 -8 -38 -21 -21 -23 -21
-51 -4 -23 14 -35 15 -60 6 -37 -13 -51 -35 -51 -83 0 -59 70 -97 111 -60 16
14 20 14 48 -7 35 -26 33 -32 -19 -59 -50 -25 -81 -25 -131 0 -73 38 -100 127
-63 205 32 69 126 99 195 64z m279 -18 c16 -16 32 -40 35 -53 9 -37 -19 -94
-59 -120 -20 -13 -36 -25 -36 -29 0 -3 23 -4 50 -2 l50 4 0 -33 0 -33 -110 0
c-92 0 -110 2 -110 15 0 25 27 56 90 105 63 48 71 66 43 97 -21 24 -42 23 -70
-4 l-24 -22 -25 26 -26 26 38 26 c55 37 115 36 154 -3z"/>
<path d="M4383 5034 c1 -10 -3 -19 -10 -19 -6 0 -14 -3 -17 -6 -4 -3 6 -5 21
-4 18 1 27 7 25 16 -5 22 -20 33 -19 13z"/>
<path d="M4406 4972 c-3 -5 1 -9 9 -9 8 0 12 4 9 9 -3 4 -7 8 -9 8 -2 0 -6 -4
-9 -8z"/>
<path d="M4455 4880 c10 -11 20 -20 23 -20 3 0 -3 9 -13 20 -10 11 -20 20 -23
20 -3 0 3 -9 13 -20z"/>
</g>
</svg>
